<svg xmlns="http://www.w3.org/2000/svg" width="200" height="60" viewBox="0 0 200 60">
  <defs>
    <linearGradient id="gradient" x1="0%" y1="0%" x2="100%" y2="100%">
      <stop offset="0%" stop-color="#4F46E5" />
      <stop offset="100%" stop-color="#7C3AED" />
    </linearGradient>
  </defs>
  <g>
    <circle cx="30" cy="30" r="25" fill="url(#gradient)" />
    <path d="M30,15 C22.5,15 16.25,21.25 16.25,28.75 C16.25,33.75 18.75,38.125 22.5,40.625 L22.5,45 C22.5,46.25 23.75,47.5 25,47.5 L35,47.5 C36.25,47.5 37.5,46.25 37.5,45 L37.5,40.625 C41.25,38.125 43.75,33.75 43.75,28.75 C43.75,21.25 37.5,15 30,15 Z" fill="white" />
    <circle cx="25" cy="27.5" r="2.5" fill="#4F46E5" />
    <circle cx="35" cy="27.5" r="2.5" fill="#4F46E5" />
    <path d="M25,37.5 L35,37.5 C35,40 32.5,42.5 30,42.5 C27.5,42.5 25,40 25,37.5 Z" fill="#4F46E5" />
  </g>
  <text x="65" y="35" font-family="Arial, sans-serif" font-size="18" font-weight="bold" fill="#333">ContatosPRO</text>
  <text x="65" y="50" font-family="Arial, sans-serif" font-size="12" fill="#666">Gerenciador de Contatos</text>
</svg>
